# Created by FreeCAD <http://www.freecadweb.org>
v -1.000000 -1.000000 0.600000
v -1.000000 -1.000000 1.000000
v -1.000000 -0.599999 0.599999
v -1.000000 -0.599999 1.000000
v -1.000000 -0.200000 0.200000
v -1.000000 -0.200000 0.599999
v -1.000000 0.200000 -0.200000
v -1.000000 0.200000 0.200000
v -1.000000 0.599999 -1.000000
v -1.000000 0.599999 -0.599999
v -1.000000 0.599999 -0.200000
v -1.000000 1.000000 -1.000000
v -1.000000 1.000000 -0.599999
v 1.000000 -1.000000 0.600000
v 1.000000 -1.000000 1.000000
v 1.000000 -0.599999 0.599999
v 1.000000 -0.599999 1.000000
v 1.000000 -0.200000 0.200000
v 1.000000 -0.200000 0.599999
v 1.000000 0.200000 -0.200000
v 1.000000 0.200000 0.200000
v 1.000000 0.599999 -1.000000
v 1.000000 0.599999 -0.599999
v 1.000000 0.599999 -0.200000
v 1.000000 1.000000 -1.000000
v 1.000000 1.000000 -0.599999
vn 1.000000 0.000000 0.000000
vn 1.000000 0.000000 0.000000
vn 1.000000 0.000000 0.000000
vn 1.000000 -0.000000 0.000000
vn 1.000000 0.000000 0.000000
vn 1.000000 0.000000 0.000000
vn 1.000000 0.000000 0.000000
vn 1.000000 -0.000000 0.000000
vn 1.000000 0.000000 0.000000
vn 1.000000 -0.000000 0.000000
vn 1.000000 0.000000 0.000000
vn -0.000000 0.000000 1.000000
vn 0.000000 0.000000 1.000000
vn 0.000000 0.000000 -1.000000
vn -0.000000 0.000000 -1.000000
vn -1.000000 0.000000 0.000000
vn -1.000000 0.000000 0.000000
vn -1.000000 0.000000 0.000000
vn -1.000000 0.000000 0.000000
vn -1.000000 0.000000 0.000000
vn -1.000000 0.000000 0.000000
vn -1.000000 0.000000 0.000000
vn -1.000000 0.000000 0.000000
vn -1.000000 0.000000 0.000000
vn -1.000000 0.000000 0.000000
vn -1.000000 -0.000000 0.000000
vn 0.000000 1.000000 -0.000000
vn 0.000000 1.000000 0.000000
vn -0.000000 0.000000 1.000000
vn 0.000000 0.000000 1.000000
vn 0.000000 1.000000 -0.000000
vn 0.000000 1.000000 0.000000
vn -0.000000 0.000000 1.000000
vn 0.000000 0.000000 1.000000
vn 0.000000 1.000000 -0.000000
vn 0.000000 1.000000 0.000000
vn -0.000000 0.000000 1.000000
vn 0.000000 0.000000 1.000000
vn 0.000000 1.000000 -0.000000
vn 0.000000 1.000000 0.000000
vn -0.000000 0.000000 1.000000
vn 0.000000 0.000000 1.000000
vn 0.000000 1.000000 -0.000000
vn 0.000000 1.000000 0.000000
vn 0.000000 -1.000000 0.000000
vn 0.000000 -1.000000 -0.000000
vn 0.000000 -0.707107 -0.707107
vn 0.000000 -0.707107 -0.707107
f 17//1 15//1 16//1
f 19//2 16//2 18//2
f 21//3 18//3 20//3
f 20//4 23//4 24//4
f 23//5 20//5 22//5
f 18//6 22//6 20//6
f 14//7 18//7 16//7
f 14//8 16//8 15//8
f 18//9 14//9 22//9
f 23//10 25//10 26//10
f 25//11 23//11 22//11
f 13//12 23//12 26//12
f 23//13 13//13 10//13
f 9//14 25//14 22//14
f 25//15 9//15 12//15
f 9//16 13//16 12//16
f 9//17 10//17 13//17
f 7//18 10//18 9//18
f 10//19 7//19 11//19
f 7//20 5//20 8//20
f 9//21 5//21 7//21
f 5//22 3//22 6//22
f 1//23 5//23 9//23
f 5//24 1//24 3//24
f 1//25 4//25 3//25
f 4//26 1//26 2//26
f 25//27 13//27 26//27
f 13//28 25//28 12//28
f 11//29 20//29 24//29
f 20//30 11//30 7//30
f 23//31 11//31 24//31
f 11//32 23//32 10//32
f 8//33 18//33 21//33
f 18//34 8//34 5//34
f 20//35 8//35 21//35
f 8//36 20//36 7//36
f 6//37 16//37 19//37
f 16//38 6//38 3//38
f 18//39 6//39 19//39
f 6//40 18//40 5//40
f 4//41 15//41 17//41
f 15//42 4//42 2//42
f 16//43 4//43 17//43
f 4//44 16//44 3//44
f 1//45 15//45 2//45
f 15//46 1//46 14//46
f 9//47 14//47 1//47
f 14//48 9//48 22//48
