# Created by FreeCAD <http://www.freecadweb.org>
v -1.000000 0.600000 -1.000000
v 1.000000 1.000000 -1.000000
v 1.000000 0.600000 -1.000000
v -1.000000 1.000000 -1.000000
v -1.000000 0.600000 -0.600000
v -1.000000 -1.000000 -1.000000
v 1.000000 -1.000000 -1.000000
v 1.000000 0.600000 -0.600000
v 1.000000 1.000000 -0.600000
v -1.000000 1.000000 -0.600000
v -1.000000 -1.000000 0.600000
v -1.000000 -0.600000 0.200000
v -1.000000 -0.200000 -0.200000
v -1.000000 0.200000 -0.600000
v -1.000000 -0.600000 0.600000
v -1.000000 -0.200000 0.200000
v -1.000000 0.200000 -0.200000
v 1.000000 -1.000000 0.600000
v 1.000000 0.200000 -0.600000
v 1.000000 -0.200000 -0.200000
v 1.000000 -0.600000 0.200000
v 1.000000 0.200000 -0.200000
v 1.000000 -0.200000 0.200000
v 1.000000 -0.600000 0.600000
v -1.000000 -1.000000 1.000000
v 1.000000 -1.000000 1.000000
v 1.000000 0.600000 -0.200000
v -1.000000 0.600000 -0.200000
v -1.000000 0.200000 0.200000
v -1.000000 -0.200000 0.600000
v -1.000000 -0.600000 1.000000
v 1.000000 -0.600000 1.000000
v 1.000000 0.200000 0.200000
v 1.000000 -0.200000 0.600000
vn 0.000000 0.000000 -1.000000
vn 0.000000 0.000000 -1.000000
vn -1.000000 0.000000 0.000000
vn 0.000000 0.000000 -1.000000
vn 0.000000 0.000000 -1.000000
vn 1.000000 0.000000 0.000000
vn 0.000000 1.000000 0.000000
vn 0.000000 1.000000 0.000000
vn -1.000000 0.000000 0.000000
vn -1.000000 0.000000 0.000000
vn -1.000000 0.000000 -0.000000
vn -1.000000 -0.000000 0.000000
vn -1.000000 0.000000 0.000000
vn -1.000000 -0.000000 -0.000000
vn -1.000000 -0.000000 -0.000000
vn -1.000000 -0.000000 -0.000000
vn -1.000000 -0.000000 -0.000000
vn 0.000000 -1.000000 0.000000
vn 0.000000 -1.000000 0.000000
vn 1.000000 0.000000 0.000000
vn 1.000000 0.000000 0.000000
vn 1.000000 0.000000 0.000000
vn 1.000000 0.000000 0.000000
vn 1.000000 0.000000 -0.000000
vn 1.000000 0.000000 -0.000000
vn 1.000000 0.000000 -0.000000
vn 1.000000 0.000000 -0.000000
vn 1.000000 -0.000000 0.000000
vn 0.000000 0.000000 1.000000
vn 0.000000 0.000000 1.000000
vn -1.000000 0.000000 0.000000
vn -1.000000 0.000000 0.000000
vn -1.000000 0.000000 0.000000
vn -1.000000 0.000000 0.000000
vn 0.000000 -1.000000 0.000000
vn 0.000000 -1.000000 0.000000
vn 1.000000 0.000000 0.000000
vn 1.000000 0.000000 0.000000
vn 1.000000 0.000000 0.000000
vn 1.000000 0.000000 0.000000
vn 0.000000 1.000000 0.000000
vn 0.000000 1.000000 0.000000
vn -1.000000 0.000000 0.000000
vn -1.000000 0.000000 0.000000
vn -1.000000 0.000000 0.000000
vn -1.000000 0.000000 0.000000
vn 0.000000 0.000000 1.000000
vn 0.000000 0.000000 1.000000
vn 1.000000 -0.000000 0.000000
vn 1.000000 -0.000000 0.000000
vn 1.000000 -0.000000 0.000000
vn 1.000000 -0.000000 0.000000
vn 0.000000 0.000000 1.000000
vn 0.000000 0.000000 1.000000
vn 0.000000 0.000000 1.000000
vn 0.000000 0.000000 1.000000
vn 0.000000 1.000000 0.000000
vn 0.000000 1.000000 0.000000
vn 0.000000 0.000000 1.000000
vn 0.000000 0.000000 1.000000
vn 0.000000 1.000000 0.000000
vn 0.000000 1.000000 0.000000
vn 0.000000 1.000000 0.000000
vn 0.000000 1.000000 0.000000
f 1//1 2//1 3//1
f 1//2 4//2 2//2
f 4//3 1//3 5//3
f 6//4 3//4 7//4
f 6//5 1//5 3//5
f 2//6 8//6 3//6
f 9//7 2//7 4//7
f 9//8 4//8 10//8
f 4//9 5//9 10//9
f 11//10 12//10 6//10
f 13//11 14//11 6//11
f 13//12 6//12 12//12
f 1//13 6//13 14//13
f 15//14 12//14 11//14
f 16//15 13//15 12//15
f 5//16 1//16 14//16
f 17//17 14//17 13//17
f 11//18 7//18 18//18
f 11//19 6//19 7//19
f 19//20 20//20 7//20
f 7//21 20//21 21//21
f 21//22 18//22 7//22
f 7//23 3//23 19//23
f 19//24 22//24 20//24
f 20//25 23//25 21//25
f 3//26 8//26 19//26
f 21//27 24//27 18//27
f 8//28 2//28 9//28
f 9//29 10//29 5//29
f 9//30 5//30 8//30
f 5//31 14//31 17//31
f 17//32 13//32 16//32
f 15//33 16//33 12//33
f 15//34 11//34 25//34
f 25//35 18//35 26//35
f 25//36 11//36 18//36
f 19//37 8//37 22//37
f 20//38 22//38 23//38
f 23//39 24//39 21//39
f 18//40 24//40 26//40
f 27//41 8//41 5//41
f 27//42 5//42 28//42
f 5//43 17//43 28//43
f 17//44 16//44 29//44
f 16//45 15//45 30//45
f 15//46 25//46 31//46
f 32//47 31//47 25//47
f 32//48 25//48 26//48
f 22//49 8//49 27//49
f 23//50 22//50 33//50
f 24//51 23//51 34//51
f 26//52 24//52 32//52
f 27//53 28//53 17//53
f 27//54 17//54 22//54
f 33//55 29//55 16//55
f 33//56 16//56 23//56
f 33//57 22//57 17//57
f 33//58 17//58 29//58
f 34//59 30//59 15//59
f 34//60 15//60 24//60
f 34//61 23//61 16//61
f 34//62 16//62 30//62
f 32//63 24//63 15//63
f 32//64 15//64 31//64
